Coordinates
version=1
nRows=14
nColumns=40
inDegrees=yes

Units are S.I. units (second, meters, Newtons, ...)
Angles are in degrees.

endheader
time	pelvis_tilt	pelvis_list	pelvis_rotation	pelvis_tx	pelvis_ty	pelvis_tz	hip_flexion_r	hip_adduction_r	hip_rotation_r	knee_angle_r	knee_angle_r_beta	ankle_angle_r	subtalar_angle_r	mtp_angle_r	hip_flexion_l	hip_adduction_l	hip_rotation_l	knee_angle_l	knee_angle_l_beta	ankle_angle_l	subtalar_angle_l	mtp_angle_l	lumbar_extension	lumbar_bending	lumbar_rotation	arm_flex_r	arm_add_r	arm_rot_r	elbow_flex_r	pro_sup_r	wrist_flex_r	wrist_dev_r	arm_flex_l	arm_add_l	arm_rot_l	elbow_flex_l	pro_sup_l	wrist_flex_l	wrist_dev_l
     35.06792857	     -3.73336569	     -5.71562569	      6.71085031	      0.82352025	      0.91864122	      0.48321078	      0.91756704	      4.60286926	    -15.52552260	     13.35284027	     13.35284027	     17.83920940	      0.32984037	     -4.56431505	     31.37330290	     -6.82520926	     -0.45798716	     21.94978792	     21.94978792	      5.01328683	     -9.21797542	      6.51362668	     -8.21234251	      5.84775484	      3.17880612	     40.97719403	    -15.27279207	      1.02980974	     93.55056574	     44.26074045	      0.00000000	      0.00000000	    -12.73030361	     -7.68577713	     -1.95029934	     33.32933314	     45.83427512	      0.00000000	      0.00000000
     35.08085714	     -3.73346519	     -5.78345097	      6.59902981	      0.82545781	      0.91746163	      0.48167586	      0.21851089	      4.65131184	    -15.42827592	     13.16924569	     13.16924569	     18.22299811	      0.54436706	     -4.44553507	     31.18804438	     -6.89205540	     -0.38372168	     22.81377324	     22.81377324	      4.57309232	     -9.80400829	      6.33150167	     -7.99171769	      5.78213777	      3.21127768	     40.91121701	    -15.02656332	      1.25663169	     94.00641284	     44.24404391	      0.00000000	      0.00000000	    -12.87376956	     -7.75760961	     -2.02403741	     33.40758540	     45.84119035	      0.00000000	      0.00000000
     35.09378571	     -3.77169736	     -5.77671865	      6.45869527	      0.82730238	      0.91641563	      0.48009028	     -0.34247561	      4.58067903	    -15.25890604	     13.16720699	     13.16720699	     18.57150260	      0.63672565	     -4.36211394	     30.99261773	     -6.89270518	     -0.38381320	     23.54999885	     23.54999885	      4.25152337	    -10.31161164	      6.18090524	     -7.76803279	      5.59343648	      3.24938302	     40.72305215	    -14.82379479	      1.46021420	     94.29193261	     44.23145888	      0.00000000	      0.00000000	    -12.90244481	     -7.87456350	     -2.09304875	     33.47082807	     45.84940457	      0.00000000	      0.00000000
     35.10671429	     -3.78968241	     -5.73349474	      6.34049131	      0.82903695	      0.91552274	      0.47840825	     -0.84469014	      4.44654264	    -15.07495940	     13.30030262	     13.30030262	     18.89775634	      0.62612109	     -4.30359457	     30.81318012	     -6.83357604	     -0.33644211	     24.30571712	     24.30571712	      4.14617741	    -10.83625406	      5.98318310	     -7.60511279	      5.36171565	      3.23771720	     40.42792950	    -14.62675717	      1.65867136	     94.48052068	     44.22072395	      0.00000000	      0.00000000	    -12.79542318	     -8.00529680	     -2.15236684	     33.53995485	     45.85848443	      0.00000000	      0.00000000
     35.11964286	     -3.85829657	     -5.77937223	      6.20506050	      0.83050945	      0.91467801	      0.47663755	     -0.90625986	      4.30612296	    -14.83243973	     14.20929176	     14.20929176	     20.13959094	      0.54557004	     -1.46354406	     30.68097452	     -6.72582046	      0.20210781	     24.89090192	     24.89090192	      3.16459434	    -12.46405419	      3.80953864	     -7.51820445	      5.22401777	      3.42224800	     39.74728966	    -14.98050022	      2.09852716	     95.87959856	     44.25168309	      0.00000000	      0.00000000	    -12.53719212	     -7.98090465	     -2.99519020	     33.73044670	     45.95423215	      0.00000000	      0.00000000
     35.13257143	     -3.84619757	     -5.69014747	      6.06470068	      0.83200969	      0.91437466	      0.47478398	     -1.29399515	      4.06544613	    -14.63861816	     14.56048512	     14.56048512	     20.20156567	      0.44396631	     -1.48987092	     30.42565323	     -6.60345436	      0.26435251	     25.53095416	     25.53095416	      3.54151116	    -12.89573626	      3.58330465	     -7.48433981	      4.94864501	      3.31229722	     39.28133531	    -14.77056368	      2.26174326	     95.79654857	     44.24928544	      0.00000000	      0.00000000	    -12.18528772	     -8.14423728	     -3.02220888	     33.80627497	     45.96253706	      0.00000000	      0.00000000
     35.14550000	     -3.70275099	     -5.60556344	      5.92841736	      0.83333276	      0.91434797	      0.47293854	     -1.57712537	      3.78725435	    -14.42805441	     15.35735185	     15.35735185	     20.30245486	      0.10463333	     -1.57352531	     30.18222140	     -6.47876005	      0.42192129	     26.42269584	     26.42269584	      3.97228672	    -13.51883250	      3.32855346	     -7.66239955	      4.63927524	      3.24102000	     38.55651548	    -14.51064682	      2.50969547	     95.64402506	     44.24605105	      0.00000000	      0.00000000	    -11.76147008	     -8.33757255	     -3.06070697	     33.86514892	     45.97316886	      0.00000000	      0.00000000
     35.15842857	     -3.97430060	     -5.47996701	      5.71039753	      0.83399169	      0.91382619	      0.47104356	     -0.68607778	      3.29145997	    -13.80989895	     17.45920563	     17.45920563	     20.54079220	     -1.24331600	     -1.73765727	     30.34411247	     -6.20405644	      0.69774468	     27.18365797	     27.18365797	      4.33406425	    -14.54927097	      3.45185675	     -7.39340355	      4.30161286	      3.32801683	     37.94509161	    -14.61947435	      2.81151543	     95.52414189	     44.25268509	      0.00000000	      0.00000000	    -11.17389090	     -8.45066073	     -3.16781069	     33.66653101	     45.99156825	      0.00000000	      0.00000000
     35.17135714	     -3.98543253	     -5.37176680	      5.50345545	      0.83486174	      0.91409124	      0.46909196	     -0.28972871	      2.86726220	    -13.38374814	     19.12992459	     19.12992459	     20.47740882	     -2.09802225	     -1.92360333	     30.08678876	     -6.02643959	      0.79827557	     27.75113161	     27.75113161	      4.97094535	    -15.08897220	      3.49300567	     -7.44922728	      3.99947218	      3.36023836	     37.08778149	    -14.61925991	      3.11447091	     95.24051269	     44.26147239	      0.00000000	      0.00000000	    -10.46059501	     -8.59193220	     -3.27632280	     33.56733892	     46.01261572	      0.00000000	      0.00000000
     35.18428571	     -4.00915626	     -5.27746308	      5.26478809	      0.83560131	      0.91455352	      0.46714073	      0.29007145	      2.41861354	    -12.95824431	     21.07143246	     21.07143246	     20.24665975	     -2.99855172	     -2.33757795	     29.77869700	     -5.88524735	      0.80478787	     28.21062502	     28.21062502	      5.69483977	    -15.46776711	      3.62025778	     -7.49827042	      3.71456505	      3.40193049	     36.09396082	    -14.63582286	      3.43269230	     94.81115052	     44.27623621	      0.00000000	      0.00000000	     -9.69072881	     -8.72162431	     -3.41607778	     33.46232591	     46.03774528	      0.00000000	      0.00000000
     35.19721429	     -3.97927131	     -5.14178648	      4.98802962	      0.83628708	      0.91524559	      0.46515654	      0.99659359	      1.86638549	    -12.59564136	     23.34431724	     23.34431724	     19.88742580	     -3.81968253	     -2.90584780	     29.32184446	     -5.75269867	      0.61813473	     28.54029019	     28.54029019	      6.37974842	    -15.66944544	      3.58519419	     -7.64017795	      3.40690028	      3.42850714	     35.08399138	    -14.61083195	      3.72933074	     94.26112745	     44.28931808	      0.00000000	      0.00000000	     -8.93643486	     -8.87921015	     -3.52865496	     33.53490586	     46.06102901	      0.00000000	      0.00000000
     35.21014286	     -3.99283805	     -5.01429278	      4.69466250	      0.83684735	      0.91596527	      0.46315819	      1.94062393	      1.28515365	    -12.21824169	     25.91918657	     25.91918657	     19.31588374	     -4.75468815	     -3.64362917	     28.83852123	     -5.63133708	      0.38466800	     28.73228782	     28.73228782	      7.04502622	    -15.76571407	      3.54452476	     -7.71969214	      3.14383531	      3.47305712	     33.90980458	    -14.57422503	      4.06306861	     93.53756489	     44.30545625	      0.00000000	      0.00000000	     -8.15894112	     -9.03077819	     -3.65175171	     33.66479967	     46.08615199	      0.00000000	      0.00000000
     35.22307143	     -4.07400027	     -4.94017974	      4.41580742	      0.83728176	      0.91667017	      0.46121747	      2.98927456	      0.82497591	    -11.69100218	     28.32337299	     28.32337299	     17.15767966	     -6.75437251	     -8.01238815	     28.42735003	     -5.55275574	      0.16915763	     28.92150012	     28.92150012	      8.11620457	    -15.60206065	      4.55201809	     -7.67125829	      2.93695314	      3.32400591	     32.88778156	    -14.41559453	      4.59830581	     92.04334926	     44.40637904	      0.00000000	      0.00000000	     -7.26425265	     -9.01998134	     -4.48563401	     33.30776048	     46.17849518	      0.00000000	      0.00000000
     35.23600000	     -4.05826358	     -4.77263929	      4.08969353	      0.83767949	      0.91750892	      0.45919696	      4.23700769	      0.11036582	    -11.43588958	     31.44463769	     31.44463769	     16.28360709	     -7.57808790	     -8.60758729	     27.79292210	     -5.44471304	     -0.31926870	     28.89612762	     28.89612762	      8.62002390	    -15.47639291	      4.27500359	     -7.82328010	      2.65027581	      3.33332462	     31.55192931	    -14.38316609	      4.89586157	     91.25006666	     44.42381022	      0.00000000	      0.00000000	     -6.50956908	     -9.22159134	     -4.60445846	     33.70797558	     46.20244258	      0.00000000	      0.00000000
